# xmcd
# 
# Track frame offsets:
#     150
#     14880
#     26939
#     45273
#     68635
#     79231
#     91684
#     107179
#     116556
#     128611
#     143865
#     158830
# 
# Disc length: 2438
# 
# Revision: 0
# Processed by: cddbd v1.5.2PL0 Copyright (c) Steve Scherf et al.
# Submitted via: fre:ac v1.0.27
# 
DISCID=9a09840c
DTITLE=Vivaldi - Les quatre saisons - Le Figaro magazine
DYEAR=2005
DGENRE=Classique
TTITLE0=1
TTITLE1=2
TTITLE2=3
TTITLE3=4
TTITLE4=5
TTITLE5=6
TTITLE6=7
TTITLE7=8
TTITLE8=9
TTITLE9=10
TTITLE10=11
TTITLE11=12
EXTD=Dir. Jonathan Carney
EXTT0=
EXTT1=
EXTT2=
EXTT3=
EXTT4=
EXTT5=
EXTT6=
EXTT7=
EXTT8=
EXTT9=
EXTT10=
EXTT11=Printemps - été - automne - hiver
PLAYORDER=
